<mxfile host="drawio-plugin" modified="2021-09-19T03:28:28.611Z" agent="5.0 (Macintosh; Intel Mac OS X 11_5_2) AppleWebKit/537.36 (KHTML, like Gecko) Chrome/89.0.4389.114 Safari/537.36" etag="DANA0POuRbctHX7DRg7L" version="14.7.4" type="embed"><diagram id="r35E-Ga6Oy2GxQs4JQTF" name="Page-1"><mxGraphModel dx="1298" dy="792" grid="1" gridSize="10" guides="1" tooltips="1" connect="1" arrows="1" fold="1" page="1" pageScale="1" pageWidth="850" pageHeight="1100" math="0" shadow="0"><root><mxCell id="0"/><mxCell id="1" parent="0"/><mxCell id="5" style="edgeStyle=orthogonalEdgeStyle;rounded=0;orthogonalLoop=1;jettySize=auto;html=1;entryX=0;entryY=0.5;entryDx=0;entryDy=0;" edge="1" parent="1" source="2" target="3"><mxGeometry relative="1" as="geometry"/></mxCell><mxCell id="2" value="" style="rounded=1;whiteSpace=wrap;html=1;arcSize=3;" vertex="1" parent="1"><mxGeometry x="430" y="150" width="130" height="280" as="geometry"/></mxCell><mxCell id="3" value="API" style="rounded=1;whiteSpace=wrap;html=1;" vertex="1" parent="1"><mxGeometry x="640" y="60" width="120" height="60" as="geometry"/></mxCell><mxCell id="4" value="" style="dashed=0;outlineConnect=0;html=1;align=center;labelPosition=center;verticalLabelPosition=bottom;verticalAlign=top;shape=mxgraph.weblogos.twitter;fillColor=#1DA1F2;strokeColor=none" vertex="1" parent="1"><mxGeometry x="620" y="40" width="45.71" height="40" as="geometry"/></mxCell><mxCell id="6" value="" style="rounded=1;whiteSpace=wrap;html=1;arcSize=3;" vertex="1" parent="1"><mxGeometry x="170" y="150" width="130" height="280" as="geometry"/></mxCell><mxCell id="9" value="フロント" style="text;html=1;strokeColor=none;fillColor=none;align=center;verticalAlign=middle;whiteSpace=wrap;rounded=0;" vertex="1" parent="1"><mxGeometry x="170" y="150" width="70" height="20" as="geometry"/></mxCell><mxCell id="10" value="バックエンド" style="text;html=1;strokeColor=none;fillColor=none;align=center;verticalAlign=middle;whiteSpace=wrap;rounded=0;" vertex="1" parent="1"><mxGeometry x="440" y="150" width="80" height="20" as="geometry"/></mxCell><mxCell id="11" value="" style="endArrow=classic;html=1;entryX=0;entryY=0.25;entryDx=0;entryDy=0;exitX=1;exitY=0.25;exitDx=0;exitDy=0;" edge="1" parent="1" source="6" target="2"><mxGeometry width="50" height="50" relative="1" as="geometry"><mxPoint x="310" y="290" as="sourcePoint"/><mxPoint x="360" y="240" as="targetPoint"/></mxGeometry></mxCell><mxCell id="12" value="時系列データ" style="edgeLabel;html=1;align=center;verticalAlign=middle;resizable=0;points=[];" vertex="1" connectable="0" parent="11"><mxGeometry x="0.1857" y="-2" relative="1" as="geometry"><mxPoint as="offset"/></mxGeometry></mxCell><mxCell id="13" value="" style="endArrow=classic;html=1;entryX=1;entryY=0.75;entryDx=0;entryDy=0;exitX=0;exitY=0.75;exitDx=0;exitDy=0;" edge="1" parent="1" source="2" target="6"><mxGeometry width="50" height="50" relative="1" as="geometry"><mxPoint x="360" y="380" as="sourcePoint"/><mxPoint x="410" y="330" as="targetPoint"/></mxGeometry></mxCell><mxCell id="14" value="データ" style="edgeLabel;html=1;align=center;verticalAlign=middle;resizable=0;points=[];" vertex="1" connectable="0" parent="13"><mxGeometry x="-0.1857" y="3" relative="1" as="geometry"><mxPoint as="offset"/></mxGeometry></mxCell></root></mxGraphModel></diagram></mxfile>